<mxfile host="Electron" agent="Mozilla/5.0 (Windows NT 10.0; Win64; x64) AppleWebKit/537.36 (KHTML, like Gecko) draw.io/24.7.8 Chrome/128.0.6613.36 Electron/32.0.1 Safari/537.36" version="24.7.8">
  <diagram name="Page-1" id="rNZ-omP4ARs2rzPpi9Tk">
    <mxGraphModel dx="883" dy="1010" grid="1" gridSize="10" guides="1" tooltips="1" connect="1" arrows="1" fold="1" page="1" pageScale="1" pageWidth="850" pageHeight="1100" math="0" shadow="0">
      <root>
        <mxCell id="0" />
        <mxCell id="1" parent="0" />
        <mxCell id="yM-THDwb06CEvZR7gF_o-1" value="End" style="rounded=1;whiteSpace=wrap;html=1;" vertex="1" parent="1">
          <mxGeometry x="330" y="780" width="120" height="60" as="geometry" />
        </mxCell>
        <mxCell id="yM-THDwb06CEvZR7gF_o-5" value="" style="edgeStyle=orthogonalEdgeStyle;rounded=0;orthogonalLoop=1;jettySize=auto;html=1;" edge="1" parent="1" source="yM-THDwb06CEvZR7gF_o-2" target="yM-THDwb06CEvZR7gF_o-3">
          <mxGeometry relative="1" as="geometry" />
        </mxCell>
        <mxCell id="yM-THDwb06CEvZR7gF_o-2" value="Start" style="rounded=1;whiteSpace=wrap;html=1;" vertex="1" parent="1">
          <mxGeometry x="330" y="140" width="120" height="60" as="geometry" />
        </mxCell>
        <mxCell id="yM-THDwb06CEvZR7gF_o-6" value="" style="edgeStyle=orthogonalEdgeStyle;rounded=0;orthogonalLoop=1;jettySize=auto;html=1;" edge="1" parent="1" source="yM-THDwb06CEvZR7gF_o-3" target="yM-THDwb06CEvZR7gF_o-4">
          <mxGeometry relative="1" as="geometry" />
        </mxCell>
        <mxCell id="yM-THDwb06CEvZR7gF_o-3" value="x (int)= &quot;Put your chosen number:&amp;nbsp;" style="shape=card;whiteSpace=wrap;html=1;" vertex="1" parent="1">
          <mxGeometry x="350" y="290" width="80" height="70" as="geometry" />
        </mxCell>
        <mxCell id="yM-THDwb06CEvZR7gF_o-9" style="edgeStyle=orthogonalEdgeStyle;rounded=0;orthogonalLoop=1;jettySize=auto;html=1;exitX=0.5;exitY=0;exitDx=0;exitDy=0;" edge="1" parent="1" source="yM-THDwb06CEvZR7gF_o-4">
          <mxGeometry relative="1" as="geometry">
            <mxPoint x="390.5454545454545" y="430" as="targetPoint" />
          </mxGeometry>
        </mxCell>
        <mxCell id="yM-THDwb06CEvZR7gF_o-10" value="" style="edgeStyle=orthogonalEdgeStyle;rounded=0;orthogonalLoop=1;jettySize=auto;html=1;" edge="1" parent="1" source="yM-THDwb06CEvZR7gF_o-4" target="yM-THDwb06CEvZR7gF_o-7">
          <mxGeometry relative="1" as="geometry" />
        </mxCell>
        <mxCell id="yM-THDwb06CEvZR7gF_o-4" value="&lt;div style=&quot;background-color: rgb(30, 31, 34);&quot;&gt;&lt;pre style=&quot;font-family: &amp;quot;JetBrains Mono&amp;quot;, monospace; font-size: 9.8pt;&quot;&gt;&lt;div style=&quot;color: rgb(188, 190, 196);&quot;&gt;&lt;pre style=&quot;font-family:&#39;JetBrains Mono&#39;,monospace;font-size:9.8pt;&quot;&gt;&lt;span style=&quot;color:#8888c6;&quot;&gt;print&lt;/span&gt;(&lt;span style=&quot;color:#6aab73;&quot;&gt;&quot;Your chosen number is:&quot;&lt;/span&gt;, x)&lt;/pre&gt;&lt;/div&gt;&lt;/pre&gt;&lt;/div&gt;" style="shape=document;whiteSpace=wrap;html=1;boundedLbl=1;" vertex="1" parent="1">
          <mxGeometry x="330" y="400" width="120" height="80" as="geometry" />
        </mxCell>
        <mxCell id="yM-THDwb06CEvZR7gF_o-11" value="" style="edgeStyle=orthogonalEdgeStyle;rounded=0;orthogonalLoop=1;jettySize=auto;html=1;" edge="1" parent="1" source="yM-THDwb06CEvZR7gF_o-7" target="yM-THDwb06CEvZR7gF_o-8">
          <mxGeometry relative="1" as="geometry" />
        </mxCell>
        <mxCell id="yM-THDwb06CEvZR7gF_o-7" value="&lt;div style=&quot;background-color:#1e1f22;color:#bcbec4&quot;&gt;&lt;pre style=&quot;font-family:&#39;JetBrains Mono&#39;,monospace;font-size:9.8pt;&quot;&gt;&lt;span style=&quot;color:#8888c6;&quot;&gt;print&lt;/span&gt;(&lt;span style=&quot;color:#6aab73;&quot;&gt;&quot;Your chosen number is:&quot;&lt;/span&gt;, x)&lt;/pre&gt;&lt;/div&gt;" style="shape=document;whiteSpace=wrap;html=1;boundedLbl=1;" vertex="1" parent="1">
          <mxGeometry x="330" y="520" width="120" height="80" as="geometry" />
        </mxCell>
        <mxCell id="yM-THDwb06CEvZR7gF_o-12" value="" style="edgeStyle=orthogonalEdgeStyle;rounded=0;orthogonalLoop=1;jettySize=auto;html=1;" edge="1" parent="1" source="yM-THDwb06CEvZR7gF_o-8" target="yM-THDwb06CEvZR7gF_o-1">
          <mxGeometry relative="1" as="geometry" />
        </mxCell>
        <mxCell id="yM-THDwb06CEvZR7gF_o-8" value="&lt;div style=&quot;background-color:#1e1f22;color:#bcbec4&quot;&gt;&lt;pre style=&quot;font-family:&#39;JetBrains Mono&#39;,monospace;font-size:9.8pt;&quot;&gt;&lt;span style=&quot;color:#8888c6;&quot;&gt;print&lt;/span&gt;(&lt;span style=&quot;color:#6aab73;&quot;&gt;&quot;Your chosen number is:&quot;&lt;/span&gt;, x)&lt;/pre&gt;&lt;/div&gt;" style="shape=document;whiteSpace=wrap;html=1;boundedLbl=1;" vertex="1" parent="1">
          <mxGeometry x="330" y="650" width="120" height="80" as="geometry" />
        </mxCell>
      </root>
    </mxGraphModel>
  </diagram>
</mxfile>
